<?xml version="1.0" standalone="no"?>
<!DOCTYPE svg PUBLIC "-//W3C//DTD SVG 20010904//EN"
 "http://www.w3.org/TR/2001/REC-SVG-20010904/DTD/svg10.dtd">
<svg version="1.0" xmlns="http://www.w3.org/2000/svg"
 width="2000.000000pt" height="2000.000000pt" viewBox="0 0 2000.000000 2000.000000"
 preserveAspectRatio="xMidYMid meet">
<metadata>
Created by potrace 1.11, written by Peter Selinger 2001-2013
</metadata>
<g transform="translate(0.000000,2000.000000) scale(0.100000,-0.100000)"
fill="#000000" stroke="none">
<path d="M9629 19996 c-2 -2 -77 -7 -167 -10 -90 -4 -171 -9 -180 -11 -9 -1
-62 -6 -117 -9 -55 -4 -111 -9 -125 -11 -14 -2 -52 -6 -85 -10 -86 -9 -145
-15 -185 -20 -19 -3 -57 -7 -85 -10 -27 -4 -61 -8 -75 -10 -14 -3 -72 -11
-130 -20 -771 -115 -1592 -345 -2322 -650 -175 -74 -202 -85 -348 -152 -120
-56 -497 -245 -595 -300 -49 -28 -112 -63 -140 -78 -496 -273 -1145 -732
-1625 -1149 -342 -297 -723 -676 -980 -976 -30 -36 -71 -83 -91 -105 -73 -82
-290 -356 -420 -530 -253 -340 -539 -788 -748 -1170 -89 -163 -269 -525 -321
-645 -18 -41 -46 -104 -62 -140 -103 -224 -277 -690 -368 -985 -178 -574 -297
-1108 -370 -1665 -11 -85 -22 -168 -25 -185 -2 -16 -7 -64 -10 -105 -4 -41 -8
-86 -11 -99 -2 -13 -6 -67 -9 -120 -3 -53 -8 -105 -10 -116 -11 -56 -20 -391
-20 -720 0 -394 7 -598 30 -839 3 -27 8 -79 11 -115 8 -100 50 -448 59 -501 5
-29 10 -60 25 -155 49 -322 156 -799 264 -1171 54 -187 175 -560 200 -619 8
-16 21 -52 31 -80 24 -68 143 -370 166 -420 10 -22 49 -110 88 -195 38 -85 78
-173 88 -195 40 -87 220 -437 286 -555 65 -117 233 -398 330 -552 48 -77 297
-440 327 -478 11 -14 64 -84 118 -156 90 -120 314 -401 359 -449 10 -11 47
-54 83 -95 131 -151 280 -309 465 -495 473 -474 982 -890 1540 -1260 127 -84
244 -160 260 -169 17 -9 64 -37 105 -63 743 -455 1618 -831 2520 -1081 291
-81 806 -192 1055 -227 22 -3 65 -10 95 -15 61 -10 82 -13 255 -34 153 -19
255 -29 496 -50 312 -27 1226 -28 1454 -2 17 2 71 7 120 11 50 3 101 8 115 10
14 2 57 6 95 10 59 5 278 32 420 51 22 3 119 19 215 35 1786 302 3454 1087
4835 2273 217 187 325 287 545 506 181 182 262 267 390 410 47 52 88 97 91
100 17 15 270 324 360 440 694 892 1233 1900 1590 2970 215 646 370 1351 444
2020 9 74 17 151 19 170 3 19 8 80 11 135 4 55 8 110 10 123 26 167 26 1268 0
1435 -2 12 -6 64 -10 114 -4 51 -8 108 -10 125 -2 18 -6 58 -9 88 -19 182 -57
460 -92 660 -65 378 -172 828 -283 1195 -745 2450 -2401 4520 -4636 5795 -167
95 -324 178 -495 261 -80 38 -161 78 -180 89 -19 10 -102 48 -185 85 -980 435
-2005 708 -3065 814 -107 11 -244 23 -305 26 -60 4 -123 9 -140 11 -36 6 -931
15 -936 10z"/>
</g>
</svg>
